# xmcd
#
# Track frame offsets:
#	150
#	16681
#	36488
#	55286
#	72450
#	93622
#	110851
#	125533
#	144388
#	164565
#	179597
#	196826
#	217998
#	235162
#	253960
#	273767
#	290298
#	305330
#	325507
#	344362
#
# Disc length: 4787 seconds
# Revision: 0
# Processed by: cddbd v1.5.2PL0 Copyright (c) Steve Scherf et al.
# Submitted via: dBpowerAMP V12.0
#
DISCID=3112b114
DTITLE=Mac Davis - Texas in my Rearview Mirror
DYEAR=1900
DGENRE=Rock and Roll
TTITLE0=It Turned Me On - Mac Davis - Texas In My Rearview Mirror (Mstr)
TTITLE1=In The Eyes Of My People - Mac Davis - Texas In My Rearview Mirror (Mstr)
TTITLE2=In My Rearview Mirror - Mac Davis - Texas In My Rearview Mirror (Mstr)
TTITLE3=Id Rather Be A Rodeo Clown - Mac Davis - Texas In My Rearview Mirror (Mstr)
TTITLE4=Hot Texas Night - Mac Davis - Texas In My Rearview Mirror (Mstr)
TTITLE5=Hello Hollywood - Mac Davis - Texas In My Rearview Mirror (Mstr)
TTITLE6=Sucker For A Sad Song - Mac Davis - Texas In My Rearview Mirror (Mstr)
TTITLE7=Secrets - Mac Davis - Texas In My Rearview Mirror (Mstr)
TTITLE8=Remember When - Mac Davis - Texas In My Rearview Mirror (Mstr)
TTITLE9=Me And Fatboy - Mac Davis - Texas In My Rearview Mirror (Mstr)
TTITLE10=Hello Hollywood
TTITLE11=Hot Texas Night
TTITLE12=Id Rather Be A Rodeo Clown
TTITLE13=In My Rearview Mirror
TTITLE14=In The Eyes Of My People
TTITLE15=It Turned Me On
TTITLE16=Me And Fatboy
TTITLE17=Remember When
TTITLE18=Secrets
TTITLE19=Sucker For A Sad Song
EXTD=
EXTT0=
EXTT1=
EXTT2=
EXTT3=
EXTT4=
EXTT5=
EXTT6=
EXTT7=
EXTT8=
EXTT9=
EXTT10=
EXTT11=
EXTT12=
EXTT13=
EXTT14=
EXTT15=
EXTT16=
EXTT17=
EXTT18=
EXTT19=
PLAYORDER=
